<mxfile host="app.diagrams.net" modified="2024-04-17T12:32:24.177Z" agent="Mozilla/5.0 (Windows NT 10.0; Win64; x64) AppleWebKit/537.36 (KHTML, like Gecko) Chrome/123.0.0.0 Safari/537.36" etag="rlOVfSEJPIuzC6ASioRk" version="24.2.5" type="device">
  <diagram name="Страница — 1" id="9vnyaPxnZRSD1N0s-zgg">
    <mxGraphModel dx="1259" dy="693" grid="1" gridSize="10" guides="1" tooltips="1" connect="1" arrows="1" fold="1" page="1" pageScale="1" pageWidth="827" pageHeight="1169" math="0" shadow="0">
      <root>
        <mxCell id="0" />
        <mxCell id="1" parent="0" />
        <mxCell id="e2eClwJ5niB-DXrkOVPr-1" value="Начало" style="ellipse;whiteSpace=wrap;html=1;" vertex="1" parent="1">
          <mxGeometry x="210" y="80" width="90" height="30" as="geometry" />
        </mxCell>
        <mxCell id="e2eClwJ5niB-DXrkOVPr-2" value="Наличие аккаунта" style="rhombus;whiteSpace=wrap;html=1;" vertex="1" parent="1">
          <mxGeometry x="215" y="140" width="80" height="70" as="geometry" />
        </mxCell>
        <mxCell id="e2eClwJ5niB-DXrkOVPr-3" value="" style="endArrow=classic;html=1;rounded=0;exitX=0.5;exitY=1;exitDx=0;exitDy=0;entryX=0.5;entryY=0;entryDx=0;entryDy=0;" edge="1" parent="1" source="e2eClwJ5niB-DXrkOVPr-1" target="e2eClwJ5niB-DXrkOVPr-2">
          <mxGeometry width="50" height="50" relative="1" as="geometry">
            <mxPoint x="270" y="180" as="sourcePoint" />
            <mxPoint x="320" y="130" as="targetPoint" />
          </mxGeometry>
        </mxCell>
        <mxCell id="e2eClwJ5niB-DXrkOVPr-4" value="" style="endArrow=classic;html=1;rounded=0;exitX=1;exitY=0.5;exitDx=0;exitDy=0;" edge="1" parent="1" source="e2eClwJ5niB-DXrkOVPr-2">
          <mxGeometry width="50" height="50" relative="1" as="geometry">
            <mxPoint x="360" y="220" as="sourcePoint" />
            <mxPoint x="350" y="175" as="targetPoint" />
          </mxGeometry>
        </mxCell>
        <mxCell id="e2eClwJ5niB-DXrkOVPr-6" value="Нет" style="edgeLabel;html=1;align=center;verticalAlign=middle;resizable=0;points=[];" vertex="1" connectable="0" parent="e2eClwJ5niB-DXrkOVPr-4">
          <mxGeometry x="0.2368" relative="1" as="geometry">
            <mxPoint x="201" y="45" as="offset" />
          </mxGeometry>
        </mxCell>
        <mxCell id="e2eClwJ5niB-DXrkOVPr-5" value="" style="endArrow=classic;html=1;rounded=0;exitX=0;exitY=0.5;exitDx=0;exitDy=0;" edge="1" parent="1" source="e2eClwJ5niB-DXrkOVPr-2">
          <mxGeometry width="50" height="50" relative="1" as="geometry">
            <mxPoint x="120" y="174.5" as="sourcePoint" />
            <mxPoint x="160" y="175" as="targetPoint" />
          </mxGeometry>
        </mxCell>
        <mxCell id="e2eClwJ5niB-DXrkOVPr-7" value="Нет" style="edgeLabel;html=1;align=center;verticalAlign=middle;resizable=0;points=[];" vertex="1" connectable="0" parent="1">
          <mxGeometry x="330" y="170" as="geometry">
            <mxPoint x="-141" y="-9" as="offset" />
          </mxGeometry>
        </mxCell>
        <mxCell id="e2eClwJ5niB-DXrkOVPr-8" value="Авторизация" style="shape=parallelogram;perimeter=parallelogramPerimeter;whiteSpace=wrap;html=1;fixedSize=1;" vertex="1" parent="1">
          <mxGeometry x="340" y="160" width="120" height="30" as="geometry" />
        </mxCell>
        <mxCell id="e2eClwJ5niB-DXrkOVPr-9" value="Регистрация" style="shape=parallelogram;perimeter=parallelogramPerimeter;whiteSpace=wrap;html=1;fixedSize=1;" vertex="1" parent="1">
          <mxGeometry x="50" y="160" width="120" height="30" as="geometry" />
        </mxCell>
        <mxCell id="e2eClwJ5niB-DXrkOVPr-10" value="" style="endArrow=classic;html=1;rounded=0;exitX=0.5;exitY=1;exitDx=0;exitDy=0;entryX=0;entryY=0.25;entryDx=0;entryDy=0;" edge="1" parent="1" source="e2eClwJ5niB-DXrkOVPr-9" target="e2eClwJ5niB-DXrkOVPr-11">
          <mxGeometry width="50" height="50" relative="1" as="geometry">
            <mxPoint x="140" y="320" as="sourcePoint" />
            <mxPoint x="200" y="280" as="targetPoint" />
            <Array as="points">
              <mxPoint x="110" y="280" />
            </Array>
          </mxGeometry>
        </mxCell>
        <mxCell id="e2eClwJ5niB-DXrkOVPr-11" value="Отправка заявки" style="shape=parallelogram;perimeter=parallelogramPerimeter;whiteSpace=wrap;html=1;fixedSize=1;" vertex="1" parent="1">
          <mxGeometry x="195" y="270" width="135" height="30" as="geometry" />
        </mxCell>
        <mxCell id="e2eClwJ5niB-DXrkOVPr-12" value="" style="endArrow=classic;html=1;rounded=0;exitX=0.5;exitY=1;exitDx=0;exitDy=0;" edge="1" parent="1" source="e2eClwJ5niB-DXrkOVPr-11">
          <mxGeometry width="50" height="50" relative="1" as="geometry">
            <mxPoint x="270" y="400" as="sourcePoint" />
            <mxPoint x="263" y="340" as="targetPoint" />
          </mxGeometry>
        </mxCell>
        <mxCell id="e2eClwJ5niB-DXrkOVPr-14" value="" style="endArrow=classic;html=1;rounded=0;exitX=1;exitY=0.5;exitDx=0;exitDy=0;" edge="1" parent="1" source="e2eClwJ5niB-DXrkOVPr-8">
          <mxGeometry width="50" height="50" relative="1" as="geometry">
            <mxPoint x="480" y="200" as="sourcePoint" />
            <mxPoint x="510" y="175" as="targetPoint" />
          </mxGeometry>
        </mxCell>
        <mxCell id="e2eClwJ5niB-DXrkOVPr-15" value="Нотариус" style="rhombus;whiteSpace=wrap;html=1;" vertex="1" parent="1">
          <mxGeometry x="510" y="140" width="80" height="70" as="geometry" />
        </mxCell>
        <mxCell id="e2eClwJ5niB-DXrkOVPr-16" value="" style="endArrow=classic;html=1;rounded=0;exitX=0.5;exitY=1;exitDx=0;exitDy=0;entryX=1;entryY=0.5;entryDx=0;entryDy=0;" edge="1" parent="1" source="e2eClwJ5niB-DXrkOVPr-15" target="e2eClwJ5niB-DXrkOVPr-11">
          <mxGeometry width="50" height="50" relative="1" as="geometry">
            <mxPoint x="540" y="250" as="sourcePoint" />
            <mxPoint x="550" y="260" as="targetPoint" />
            <Array as="points">
              <mxPoint x="550" y="285" />
            </Array>
          </mxGeometry>
        </mxCell>
        <mxCell id="e2eClwJ5niB-DXrkOVPr-17" value="Да" style="edgeLabel;html=1;align=center;verticalAlign=middle;resizable=0;points=[];" vertex="1" connectable="0" parent="1">
          <mxGeometry x="310" y="150" as="geometry">
            <mxPoint x="6" y="9" as="offset" />
          </mxGeometry>
        </mxCell>
        <mxCell id="e2eClwJ5niB-DXrkOVPr-18" value="Да" style="edgeLabel;html=1;align=center;verticalAlign=middle;resizable=0;points=[];" vertex="1" connectable="0" parent="1">
          <mxGeometry x="550" y="230" as="geometry">
            <mxPoint x="56" y="-71" as="offset" />
          </mxGeometry>
        </mxCell>
        <mxCell id="e2eClwJ5niB-DXrkOVPr-19" value="" style="endArrow=classic;html=1;rounded=0;exitX=1;exitY=0.5;exitDx=0;exitDy=0;" edge="1" parent="1">
          <mxGeometry width="50" height="50" relative="1" as="geometry">
            <mxPoint x="590" y="174.5" as="sourcePoint" />
            <mxPoint x="650" y="174.5" as="targetPoint" />
          </mxGeometry>
        </mxCell>
        <mxCell id="e2eClwJ5niB-DXrkOVPr-20" value="Просмотр заявки" style="shape=parallelogram;perimeter=parallelogramPerimeter;whiteSpace=wrap;html=1;fixedSize=1;" vertex="1" parent="1">
          <mxGeometry x="640" y="160" width="135" height="30" as="geometry" />
        </mxCell>
        <mxCell id="e2eClwJ5niB-DXrkOVPr-22" value="" style="endArrow=classic;html=1;rounded=0;exitX=0.5;exitY=1;exitDx=0;exitDy=0;" edge="1" parent="1">
          <mxGeometry width="50" height="50" relative="1" as="geometry">
            <mxPoint x="707" y="190" as="sourcePoint" />
            <mxPoint x="707" y="280" as="targetPoint" />
          </mxGeometry>
        </mxCell>
        <mxCell id="e2eClwJ5niB-DXrkOVPr-23" value="Решение исходя из данных" style="shape=parallelogram;perimeter=parallelogramPerimeter;whiteSpace=wrap;html=1;fixedSize=1;" vertex="1" parent="1">
          <mxGeometry x="640" y="280" width="150" height="30" as="geometry" />
        </mxCell>
        <mxCell id="e2eClwJ5niB-DXrkOVPr-24" value="Конец" style="ellipse;whiteSpace=wrap;html=1;" vertex="1" parent="1">
          <mxGeometry x="217.5" y="430" width="90" height="30" as="geometry" />
        </mxCell>
        <mxCell id="e2eClwJ5niB-DXrkOVPr-25" value="Просмотр статуса заявки" style="shape=parallelogram;perimeter=parallelogramPerimeter;whiteSpace=wrap;html=1;fixedSize=1;" vertex="1" parent="1">
          <mxGeometry x="195" y="340" width="135" height="30" as="geometry" />
        </mxCell>
        <mxCell id="e2eClwJ5niB-DXrkOVPr-26" value="" style="endArrow=classic;html=1;rounded=0;exitX=0.5;exitY=1;exitDx=0;exitDy=0;entryX=0.5;entryY=0;entryDx=0;entryDy=0;" edge="1" parent="1" target="e2eClwJ5niB-DXrkOVPr-24">
          <mxGeometry width="50" height="50" relative="1" as="geometry">
            <mxPoint x="262" y="370" as="sourcePoint" />
            <mxPoint x="262" y="410" as="targetPoint" />
          </mxGeometry>
        </mxCell>
        <mxCell id="e2eClwJ5niB-DXrkOVPr-29" value="" style="endArrow=classic;html=1;rounded=0;exitX=0.5;exitY=1;exitDx=0;exitDy=0;" edge="1" parent="1" target="e2eClwJ5niB-DXrkOVPr-25">
          <mxGeometry width="50" height="50" relative="1" as="geometry">
            <mxPoint x="707" y="310" as="sourcePoint" />
            <mxPoint x="707" y="400" as="targetPoint" />
            <Array as="points">
              <mxPoint x="707" y="360" />
            </Array>
          </mxGeometry>
        </mxCell>
      </root>
    </mxGraphModel>
  </diagram>
</mxfile>
